<svg width="350" height="91" fill="none" xmlns="http://www.w3.org/2000/svg" id="svg79002381_8468"><g clip-path="url(#svg79002381_8468_a)" fill-rule="evenodd" clip-rule="evenodd" fill="#ADBDCE"><path d="M40.364.607C17.902 1.364.492 20.701.492 43.45l.185 44.546c0 1.138.937 1.894 1.873 1.894h1.873c8.797 0 16.659-2.274 21.901-8.907 5.989 2.465 12.543 3.412 19.658 2.846 20.595-2.085 36.502-19.714 37.068-40.754C83.42 19.183 63.953-.15 40.364.607ZM6.295 84.014v-7.585c7.3-.947 13.104-7.394 13.104-15.164V42.308c-.185-12.51 9.924-22.749 22.277-22.749 12.353 0 22.462 10.044 22.462 22.559 0 12.509-9.92 22.749-22.277 22.94-3.37 0-6.55-.757-9.358-2.085v-8.907c2.619 2.084 5.803 3.221 9.358 3.221 8.237 0 14.977-6.823 14.977-15.164s-6.74-15.165-14.977-15.165c-8.236 0-14.976 6.824-14.976 15.165v20.855c.005 12.129-8.983 20.089-20.59 21.036Zm26.023-41.7c0-5.306 4.12-9.48 9.358-9.48 5.242 0 9.358 4.169 9.358 9.48 0 5.31-4.12 9.477-9.358 9.477-5.052 0-9.173-4.173-9.358-9.478Zm9.548 36.014c-4.306 0-8.612-.757-12.352-2.275 1.121-2.274 2.058-4.548 2.433-7.203 3.185 1.137 6.364 1.893 9.92 1.708 15.537 0 28.08-12.89 27.894-28.626 0-15.545-12.543-28.054-28.08-28.054-15.537 0-28.08 12.89-27.895 28.626V61.46c0 4.549-3.184 8.341-7.486 9.288l-.185-26.35v-1.895c0-19.903 15.913-36.205 35.566-36.205 19.658 0 35.566 15.926 35.756 35.83-.005 19.898-15.918 36.2-35.57 36.2Zm59.9-46.631c0-.947.751-1.708 1.682-1.708h4.306a1.69 1.69 0 0 1 1.688 1.708v3.222h.185c1.121-2.084 2.809-3.412 4.867-4.359 2.058-.947 4.121-1.327 6.554-1.327 2.434 0 4.682.38 6.74 1.327s3.745 2.084 5.052 3.602c1.497 1.518 2.434 3.412 3.185 5.496.751 2.084 1.121 4.358 1.121 6.823 0 2.465-.375 4.74-1.121 6.823-.751 2.084-1.873 3.983-3.185 5.496-1.312 1.518-2.994 2.845-5.052 3.602-1.873.947-4.116 1.327-6.364 1.327-1.497 0-2.995-.19-4.121-.57-1.122-.381-2.248-.757-3.185-1.328-.936-.572-1.682-1.138-2.248-1.709-.561-.57-1.122-1.137-1.497-1.708h-.185v18.2c0 .947-.751 1.709-1.688 1.709h-5.052c-.936 0-1.682-.757-1.682-1.709V31.697Zm27.143 14.784c0-1.328-.185-2.465-.56-3.792-.376-1.138-1.122-2.275-1.873-3.222-.751-.947-1.873-1.708-2.994-2.274a14.374 14.374 0 0 0-4.121-.571c-1.497 0-2.809.19-4.116.756-1.122.571-2.248 1.328-2.994 2.275-.751.947-1.498 1.893-1.873 3.221-.376 1.137-.561 2.465-.561 3.792 0 1.328.185 2.465.561 3.793.375 1.137 1.122 2.274 1.873 3.22.751.948 1.872 1.71 2.994 2.275 1.121.571 2.433.757 4.116.757 1.497 0 2.809-.19 4.121-.757 1.121-.57 2.248-1.327 2.994-2.274.751-.947 1.497-1.894 1.873-3.221.375-1.513.56-2.65.56-3.978Zm31.826 12.324c0-.19 0-.19-.185-.19-1.122 1.893-2.619 3.22-4.492 4.167-1.872.757-3.745 1.328-5.988 1.328-1.498 0-2.995-.19-4.492-.571-1.497-.38-2.619-.947-3.745-1.894-1.122-.756-2.058-1.893-2.619-3.03-.751-1.328-.936-2.656-.936-4.359 0-1.708.375-3.412.936-4.549.561-1.327 1.497-2.274 2.619-3.221 1.121-.756 2.248-1.518 3.745-2.084 1.497-.571 2.809-.947 4.492-1.137 1.497-.19 2.994-.381 4.681-.571 1.497 0 2.995-.19 4.306-.19h2.058v-.948c0-2.084-.751-3.602-2.058-4.739-1.497-.947-3.184-1.518-5.427-1.518-1.683 0-3.37.381-4.867.947-.751.38-1.873.947-2.619 1.518-.751.571-1.682.38-2.433-.19l-1.873-1.894c-.751-.756-.751-1.894.185-2.655 1.312-.947 3.37-2.465 4.867-2.846 2.434-.756 4.867-1.327 7.486-1.327 2.248 0 4.306.19 5.803.756 1.682.571 2.994 1.137 3.931 2.084 1.121.757 1.872 1.709 2.433 2.846a23.564 23.564 0 0 1 1.312 3.221c.185 1.137.376 2.084.376 3.221v20.285a1.69 1.69 0 0 1-1.683 1.708h-3.745a1.686 1.686 0 0 1-1.683-1.708V58.8h-.385v.005Zm-.376-10.616h-1.687c-1.122 0-2.434 0-3.745.19-1.498 0-2.809.381-3.931.572-1.312.38-2.248.756-3.185 1.518-.936.756-1.311 1.518-1.311 2.845 0 .757.185 1.518.56 1.894.376.57.751.947 1.312 1.327.561.381 1.122.572 1.873.757.751.19 1.312.19 2.058.19 2.809 0 4.867-.756 6.179-2.084 1.312-1.327 2.058-3.221 2.058-5.495v-1.709h-.181v-.005Zm10.295-11.186a1.69 1.69 0 0 1-1.687-1.709v-3.411c0-.947.751-1.709 1.687-1.709h5.052v-7.77c0-.947.751-1.708 1.683-1.708h4.681a1.69 1.69 0 0 1 1.688 1.708v7.77h7.3a1.69 1.69 0 0 1 1.688 1.709v3.411c0 .947-.751 1.709-1.688 1.709h-7.3V51.6c0 1.708.375 3.03.936 3.983.561.946 1.873 1.517 3.555 1.517.751 0 1.497 0 2.434-.19.936-.19 2.058.38 2.058 1.518v3.412c0 .756-.376 1.518-1.122 1.708-.561.19-1.312.38-2.058.38-1.312.191-2.433.191-3.37.191-2.248 0-3.93-.19-5.428-.756-1.311-.572-2.433-1.138-3.184-2.275-.751-.947-1.312-2.274-1.682-3.602-.376-1.518-.376-3.221-.376-5.12V37.203h-4.867v-.2Zm32.386-2.656c0 .19 0 .19 0 0 .751-1.327 1.873-2.464 3.555-3.602 1.688-1.137 3.746-1.708 6.179-1.708 2.248 0 4.121.38 5.618 1.137 1.497.757 2.809 1.709 3.746 2.846.936 1.137 1.682 2.655 2.058 4.168.375 1.518.56 3.221.56 4.93v19.147c0 .946-.751 1.708-1.682 1.708h-4.682a1.69 1.69 0 0 1-1.687-1.708V46.29c0-.947 0-1.894-.185-3.031 0-1.137-.376-2.275-.752-3.221-.375-.947-.936-1.894-1.872-2.465-.751-.757-1.873-.947-3.37-.947-1.312 0-2.433.19-3.37.756-.936.381-1.682 1.137-2.248 1.894-.561.756-1.122 1.708-1.312 2.655-.185.947-.375 2.084-.375 3.221v16.112c0 .946-.752 1.708-1.683 1.708h-4.682a1.686 1.686 0 0 1-1.682-1.708v-48.53c0-.946.751-1.708 1.682-1.708h4.682c.937 0 1.683.757 1.683 1.709v21.611h-.181Zm26.774-21.606c0-.947.751-1.709 1.682-1.709h4.682c.936 0 1.682.757 1.682 1.709V61.27c0 .946-.751 1.708-1.682 1.708h-4.682a1.686 1.686 0 0 1-1.682-1.708V12.74Zm13.474 18.956c0-.947.751-1.708 1.682-1.708h4.682c.936 0 1.682.756 1.682 1.708V61.27c0 .946-.751 1.708-1.682 1.708h-4.682a1.686 1.686 0 0 1-1.682-1.708V31.697Zm-1.122-13.08c0-1.328.561-2.465 1.497-3.412.937-.946 2.249-1.518 3.746-1.518 1.497 0 2.809.381 3.745 1.328.936.947 1.497 2.084 1.497 3.602 0 1.518-.561 2.655-1.497 3.602-.936.947-2.248 1.328-3.745 1.328-1.497 0-2.809-.572-3.746-1.518-1.121-.947-1.497-2.084-1.497-3.412Zm46.241 11.372c.937 0 1.683.756 1.683 1.708v28.435c0 3.031-.371 5.686-1.122 8.151-.746 2.465-1.873 4.549-3.37 6.067-1.497 1.708-3.37 3.03-5.803 3.983-2.248.946-5.052 1.327-8.237 1.327-2.994 0-5.988-.38-8.612-1.137-1.688-.571-4.492-2.084-6.179-3.221-.751-.571-.936-1.709-.375-2.465l2.809-3.792c.56-.757 1.682-.947 2.618-.381 1.122.756 2.619 1.894 3.746 2.465a14.933 14.933 0 0 0 6.178 1.327c1.873 0 3.556-.19 4.867-.756 1.312-.571 2.434-1.328 3.185-2.275.751-.947 1.312-2.084 1.687-3.411.376-1.328.561-2.846.561-4.55V59h-.185c-1.122 1.709-2.809 2.846-4.682 3.602-1.872.757-3.93 1.137-5.988 1.137-2.434 0-4.682-.38-6.74-1.327s-3.745-2.084-5.242-3.602c-1.498-1.518-2.619-3.221-3.37-5.31-.751-2.084-1.122-4.359-1.122-6.633 0-2.465.376-4.74 1.122-6.823.751-2.084 1.872-3.983 3.184-5.496 1.497-1.518 3.185-2.846 5.053-3.602 2.057-.947 4.306-1.328 6.739-1.328 2.248 0 4.492.381 6.549 1.328 2.058.947 3.556 2.465 4.867 4.358h.186v-3.22c0-.948.751-1.71 1.682-1.71h4.306v-.385h.005Zm-15.727 6.638c-1.497 0-2.809.19-3.931.756-1.121.571-2.248 1.137-2.994 2.084-.751.757-1.497 1.894-2.058 3.031-.561 1.137-.751 2.655-.751 3.983 0 1.328.185 2.655.751 3.792.561 1.137 1.122 2.084 2.058 3.031.936.947 1.873 1.518 2.994 2.084 1.122.571 2.434.757 3.746.757 1.497 0 2.809-.19 4.12-.757 1.122-.57 2.249-1.137 2.995-2.084.751-.756 1.497-1.894 1.872-3.03.376-1.138.751-2.465.751-3.793 0-2.846-.936-5.305-2.618-7.014-1.507-2.084-3.941-2.84-6.935-2.84Zm30.513-2.28c.191.19 0 .19 0 0 .751-1.327 1.873-2.464 3.56-3.602 1.683-1.137 3.741-1.708 6.174-1.708 2.248 0 4.121.38 5.618 1.137 1.497.757 2.809 1.709 3.746 2.846.936 1.137 1.682 2.655 2.058 4.168.375 1.518.56 3.221.56 4.93v19.147c0 .946-.751 1.708-1.682 1.708h-4.682a1.69 1.69 0 0 1-1.687-1.708V46.29c0-.947 0-1.894-.185-3.031 0-1.137-.376-2.275-.746-3.221-.376-.947-.937-1.894-1.873-2.465-.751-.757-1.873-.947-3.37-.947-1.312 0-2.433.19-3.37.756-.936.381-1.687 1.137-2.248 1.894-.561.756-1.122 1.708-1.307 2.655-.19.947-.375 2.084-.375 3.221v16.112c0 .946-.751 1.708-1.688 1.708h-4.676a1.69 1.69 0 0 1-1.688-1.708v-48.53c0-.946.751-1.708 1.688-1.708h4.676a1.69 1.69 0 0 1 1.688 1.709v21.611h-.191Zm24.711 2.656a1.686 1.686 0 0 1-1.683-1.709v-3.411a1.69 1.69 0 0 1 1.683-1.709h5.057v-7.77c0-.947.746-1.708 1.682-1.708h4.682c.936 0 1.682.756 1.682 1.708v7.77h7.301a1.69 1.69 0 0 1 1.687 1.709v3.411c0 .947-.751 1.709-1.687 1.709h-7.301V51.6c0 1.708.376 3.03.937 3.983.561.946 1.872 1.517 3.555 1.517.751 0 1.497 0 2.433-.19.937-.19 2.063.38 2.063 1.518v3.412c0 .756-.566 1.518-1.126 1.708-.561.19-1.307.38-2.058.38-1.312.191-2.434.191-3.37.191-2.248 0-3.931-.19-5.428-.756-1.312-.572-2.433-1.138-3.184-2.275-.746-.947-1.307-2.274-1.683-3.602-.375-1.518-.375-3.221-.375-5.12V37.203h-4.867v-.2Z"/></g><defs><clipPath id="svg79002381_8468_a"><path fill="#fff" transform="translate(0 .348)" d="M0 0h350v89.674H0z"/></clipPath></defs></svg>