<svg width="350" height="106" fill="none" xmlns="http://www.w3.org/2000/svg" id="svg-936861110_4209"><g clip-path="url(#svg-936861110_4209_a)" fill-rule="evenodd" clip-rule="evenodd" fill="#ADBDCE"><path d="M217.118 82.87c-20.263 14.985-49.735 22.969-75.155 22.969-35.613 0-67.541-13.143-91.856-35.007-1.842-1.72-.245-4.053 2.088-2.702 26.157 15.231 58.453 24.32 91.856 24.32 22.472 0 47.278-4.667 70.119-14.37 3.439-1.352 6.263 2.333 2.948 4.79Z"/><path d="M225.595 73.163c-2.579-3.316-17.192-1.596-23.701-.737-1.964.246-2.333-1.474-.491-2.702 11.666-8.23 30.701-5.773 32.911-3.07 2.21 2.702-.614 21.863-11.543 30.953-1.72 1.351-3.316.614-2.579-1.228 2.456-6.142 7.982-19.776 5.403-23.216Zm-23.333-61.168V4.011c0-1.228.86-1.965 1.965-1.965h35.613c1.105 0 2.087.86 2.087 1.965v6.756c0 1.106-.982 2.58-2.701 5.036L220.805 42.09c6.877-.123 14.123.86 20.263 4.3 1.35.736 1.719 1.964 1.842 3.07v8.475c0 1.229-1.228 2.58-2.579 1.843-10.929-5.773-25.543-6.387-37.577.123-1.228.614-2.579-.614-2.579-1.843V49.95c0-1.228 0-3.439 1.351-5.404l21.367-30.585H204.35c-1.105 0-2.088-.86-2.088-1.966ZM72.461 61.496H61.654c-.982-.122-1.842-.86-1.965-1.842V4.134c0-1.105.983-1.965 2.088-1.965h10.07c1.105 0 1.842.86 1.965 1.842v7.247h.245C76.637 4.257 81.671.941 88.302.941c6.754 0 11.052 3.316 14 10.317C104.881 4.257 110.898.941 117.284.941c4.543 0 9.455 1.842 12.525 6.141 3.439 4.668 2.702 11.424 2.702 17.442v35.13c0 1.105-.982 1.965-2.088 1.965H119.74c-1.106-.123-1.965-.982-1.965-1.965v-29.48c0-2.333.245-8.23-.246-10.44-.859-3.685-3.193-4.79-6.386-4.79-2.578 0-5.403 1.719-6.508 4.544-1.105 2.825-.983 7.493-.983 10.686v29.48c0 1.105-.982 1.965-2.087 1.965H90.758c-1.105-.123-1.965-.982-1.965-1.965v-29.48c0-6.141.983-15.354-6.63-15.354-7.737 0-7.492 8.844-7.492 15.354v29.48c-.123.983-.982 1.842-2.21 1.842ZM272.628.941c16.087 0 24.806 13.757 24.806 31.322 0 16.95-9.579 30.462-24.806 30.462-15.719 0-24.315-13.757-24.315-30.954-.123-17.319 8.596-30.83 24.315-30.83Zm0 11.423c-7.982 0-8.474 10.932-8.474 17.688 0 6.755-.122 21.25 8.351 21.25 8.35 0 8.842-11.67 8.842-18.794 0-4.667-.246-10.318-1.597-14.74-1.228-3.93-3.684-5.404-7.122-5.404Zm45.559 49.132h-10.806c-1.106-.122-1.965-.982-1.965-1.965V3.888c.123-.982.982-1.842 2.087-1.842h10.07c.983 0 1.719.737 1.965 1.597v8.475h.246C322.854 4.503 327.029.941 334.52.941c4.789 0 9.578 1.72 12.648 6.51 2.825 4.422 2.825 11.914 2.825 17.319v35.007c-.123.983-.983 1.72-2.088 1.72h-10.806c-.983-.123-1.842-.86-1.965-1.72V29.56c0-6.141.737-14.985-6.754-14.985-2.579 0-5.035 1.72-6.263 4.422-1.474 3.44-1.719 6.756-1.719 10.563v29.971c-.123 1.106-1.106 1.965-2.211 1.965ZM173.895 34.965c0 4.176.123 7.738-1.965 11.546-1.719 3.07-4.421 4.913-7.491 4.913-4.175 0-6.631-3.193-6.631-7.86 0-9.213 8.228-10.933 16.087-10.933v2.334Zm10.929 26.409c-.736.614-1.719.737-2.578.245-3.562-2.948-4.298-4.422-6.263-7.247-5.895 6.019-10.193 7.861-17.807 7.861-9.087 0-16.209-5.65-16.209-16.827 0-8.844 4.789-14.74 11.543-17.688 5.895-2.58 14.122-3.071 20.385-3.808v-1.351c0-2.58.246-5.65-1.351-7.861-1.351-1.966-3.807-2.825-6.017-2.825-4.175 0-7.859 2.088-8.719 6.51-.246.982-.86 1.965-1.842 1.965l-10.438-1.106c-.86-.245-1.842-.86-1.596-2.21C146.388 4.257 157.808.449 168.123.449c5.281 0 12.158 1.351 16.333 5.405 5.281 4.913 4.789 11.546 4.789 18.67v16.828c0 5.036 2.088 7.247 4.053 10.072.737.983.859 2.211 0 2.825-2.333 1.843-6.263 5.282-8.474 7.125ZM32.059 34.964c0 4.177.123 7.74-1.965 11.547-1.719 3.07-4.42 4.913-7.49 4.913-4.176 0-6.632-3.193-6.632-7.86 0-9.213 8.228-10.933 16.087-10.933v2.334Zm10.807 26.41c-.737.614-1.72.737-2.58.245-3.56-2.948-4.297-4.422-6.262-7.247-5.895 6.019-10.193 7.861-17.806 7.861-9.088 0-16.21-5.65-16.21-16.827 0-8.844 4.79-14.74 11.543-17.688 5.895-2.58 14.122-3.071 20.385-3.808v-1.351c0-2.58.246-5.65-1.35-7.861-1.351-1.966-3.807-2.825-6.018-2.825-4.175 0-7.86 2.088-8.719 6.51-.245.982-.86 1.965-1.842 1.965L3.57 19.242c-.86-.245-1.842-.86-1.596-2.21C4.429 4.257 15.849.449 26.165.449c5.28 0 12.157 1.351 16.332 5.405 5.28 4.913 4.79 11.546 4.79 18.67v16.828c0 5.036 2.087 7.247 4.052 10.072.737.983.86 2.211 0 2.825-2.333 1.843-6.263 5.282-8.473 7.125Z"/></g><defs><clipPath id="svg-936861110_4209_a"><path fill="#fff" transform="matrix(1 0 0 -1 0 105.867)" d="M0 0h350v105.418H0z"/></clipPath></defs></svg>