<svg width="350" height="85" fill="none" xmlns="http://www.w3.org/2000/svg" id="svg1931174823_5748"><g clip-path="url(#svg1931174823_5748_a)"><path fill-rule="evenodd" clip-rule="evenodd" d="M55.239 55.02c0 2.135.357 4.153 1.07 6.051 1.43 3.917 4.287 7.121 8.096 8.782 1.905.831 4.167 1.306 6.548 1.306 2.38 0 4.643-.475 6.547-1.306 1.905-.83 3.572-2.136 5-3.56 1.31-1.543 2.381-3.204 3.096-5.222.714-1.898 1.071-4.035 1.071-6.052 0-2.017-.357-4.154-1.071-6.052a17.84 17.84 0 0 0-3.096-5.222 14.829 14.829 0 0 0-5-3.56c-2.023-.95-4.285-1.424-6.547-1.306-2.381 0-4.643.475-6.548 1.306-3.81 1.78-6.666 4.865-8.095 8.782-.714 1.898-1.072 4.035-1.072 6.052Zm-12.977.711c0-4.272.715-8.189 2.262-11.749 1.429-3.441 3.572-6.408 6.19-9.019 2.739-2.492 5.834-4.51 9.286-5.815 3.69-1.424 7.62-2.018 11.548-2.018 4.048 0 7.857.713 11.429 2.018 3.452 1.305 6.666 3.204 9.404 5.815 2.62 2.61 4.762 5.578 6.19 9.02 1.548 3.56 2.263 7.476 2.263 11.748a31.31 31.31 0 0 1-2.262 11.749c-1.429 3.441-3.572 6.408-6.19 9.02-2.739 2.491-5.834 4.509-9.405 5.814-3.69 1.424-7.5 2.018-11.429 2.018-3.929 0-7.857-.712-11.548-2.018-3.452-1.305-6.666-3.204-9.285-5.815a26.548 26.548 0 0 1-6.19-9.02c-1.548-3.56-2.263-7.476-2.263-11.748Zm78.334-.712c0 2.136.357 4.154 1.071 6.053 1.429 3.916 4.286 7.12 8.095 8.781 1.905.831 4.167 1.306 6.548 1.306 2.5 0 4.643-.475 6.548-1.306 1.904-.83 3.571-2.136 5-3.56 1.428-1.543 2.38-3.323 3.095-5.222.714-1.898 1.071-4.035 1.071-6.052 0-2.017-.357-4.154-1.071-6.052a17.866 17.866 0 0 0-3.095-5.222 14.84 14.84 0 0 0-5-3.56c-2.024-.95-4.286-1.424-6.548-1.306-2.381 0-4.643.475-6.548 1.306-3.809 1.78-6.666 4.865-8.095 8.782-.714 1.898-1.071 4.035-1.071 6.052Zm32.5 18.632c-2.024 3.323-4.643 5.696-7.977 7.12-3.452 1.543-7.023 2.255-10.833 2.255-4.286 0-7.976-.712-11.309-2.136a26.525 26.525 0 0 1-8.453-5.933 26.201 26.201 0 0 1-5.357-8.901 35.129 35.129 0 0 1-1.786-11.037c0-3.916.596-7.595 1.905-11.037a26.2 26.2 0 0 1 5.357-8.9c2.381-2.492 5.119-4.51 8.334-5.934a23.547 23.547 0 0 1 10.595-2.136c2.619 0 4.881.237 6.786.83 2.023.475 3.69 1.187 5.238 2.018 1.547.83 2.738 1.661 3.809 2.61 1.072.95 1.905 1.78 2.619 2.73h.357V5.65c0-1.305 1.072-2.967 2.977-2.967h7.738c1.785 0 2.976 1.425 2.976 2.967v73.46c0 1.899-1.667 2.967-2.976 2.967h-7.024a2.942 2.942 0 0 1-2.976-2.967v-5.459Zm35.357-18.632c0 2.136.357 4.154 1.071 6.053 1.429 3.916 4.286 7.12 8.095 8.781 1.905.831 4.167 1.306 6.548 1.306 2.5 0 4.643-.475 6.548-1.306 1.904-.83 3.571-2.136 5-3.56 1.309-1.543 2.381-3.204 3.095-5.222.714-1.898 1.071-4.035 1.071-6.052 0-2.017-.357-4.154-1.071-6.052a17.844 17.844 0 0 0-3.095-5.222 14.84 14.84 0 0 0-5-3.56c-2.024-.95-4.286-1.424-6.548-1.306-2.381 0-4.643.475-6.548 1.306-3.809 1.78-6.666 4.865-8.095 8.782-.714 1.898-1.071 4.035-1.071 6.052Zm-13.095.712c0-4.272.833-8.189 2.261-11.749 1.429-3.441 3.572-6.408 6.31-9.019a27.893 27.893 0 0 1 9.286-5.815c3.69-1.424 7.619-2.018 11.547-2.018 4.048 0 7.857.713 11.429 2.018 3.452 1.305 6.667 3.204 9.405 5.815 2.619 2.61 4.762 5.578 6.19 9.02 1.548 3.56 2.262 7.476 2.262 11.748 0 4.272-.833 8.189-2.262 11.749-1.428 3.441-3.571 6.408-6.19 9.02-2.738 2.491-5.834 4.509-9.405 5.814-3.691 1.424-7.5 2.018-11.429 2.018-3.928 0-7.857-.712-11.547-2.018-3.453-1.305-6.667-3.204-9.286-5.815-2.619-2.492-4.762-5.578-6.31-9.02a31.314 31.314 0 0 1-2.261-11.748Zm65.238-46.758c0-2.136.833-3.916 2.381-5.459 1.547-1.543 3.571-2.373 5.952-2.373s4.405.712 6.071 2.254c1.667 1.543 2.5 3.323 2.5 5.578 0 2.255-.833 4.035-2.5 5.578-1.666 1.424-3.69 2.255-6.071 2.255s-4.405-.712-5.952-2.374c-1.548-1.543-2.262-3.441-2.381-5.459Zm56.071 34.653c-1.309 0-2.381-1.068-2.5-1.542-1.071-2.967-4.643-4.036-7.5-4.036-4.524 0-8.095 2.137-8.095 5.816 0 3.56 3.452 4.272 5.595 4.865 2.381.712 6.786 1.662 9.286 2.255 2.381.593 4.762 1.424 7.024 2.611 7.142 3.798 8.095 9.613 8.095 13.173 0 13.173-12.857 17.445-21.786 17.445-6.905 0-19.762-1.068-22.619-14.36-.238-1.305.833-3.204 2.976-3.204h7.381c1.429 0 2.5 1.068 2.738 1.899.953 2.61 4.048 4.628 9.048 4.628 5.476 0 8.69-2.255 8.69-5.103 0-1.898-1.071-3.56-2.381-4.51-4.166-2.848-14.404-3.204-20-6.17-2.142-1.187-7.5-3.798-7.5-12.817 0-12.343 11.072-17.564 20.834-17.564 14.405 0 19.643 9.256 20.238 12.58.357 1.898-.714 3.797-2.738 3.797h-6.786v.237Zm13.095-7.476v-5.578c0-1.305 1.072-2.967 2.976-2.967h7.381V13.84c0-1.424 1.072-2.374 1.786-2.73l7.857-3.323c2.262-.949 4.167.95 4.167 2.73v17.09h12.143c1.905 0 2.976 1.66 2.976 2.966v5.578c0 1.661-1.429 2.967-2.976 2.967h-12.143v23.616c0 2.73-.119 4.866.952 6.408.953 1.424 2.381 1.9 5.238 1.9.834 0 1.548-.12 2.143-.357 1.31-.474 2.857 0 3.572 1.306.833 1.661 1.904 3.56 2.619 4.865.833 1.424.238 3.323-1.31 4.035-2.381 1.068-5.595 2.018-10 2.018-3.69 0-5.714-.356-8.095-1.187a14.343 14.343 0 0 1-5.833-4.035c-1.31-1.661-2.024-3.798-2.5-6.171-.477-2.374-.596-5.34-.596-8.426V39.117h-7.261c-1.905 0-3.096-1.662-3.096-2.967Zm-309.285 0v-5.578c0-1.305 1.071-2.967 2.857-2.967h8.095V13.84c0-1.424.952-2.374 1.786-2.73l7.619-3.323c2.262-.949 4.047.95 4.047 2.73v17.09h11.786c1.786 0 2.857 1.66 2.857 2.966v5.578c0 1.661-1.31 2.848-2.857 2.967H24.881v23.616c0 2.73-.119 4.866.953 6.408.952 1.424 2.262 1.9 5.119 1.9.833 0 1.428-.12 2.143-.357 1.31-.474 2.857.119 3.452 1.306.833 1.661 1.905 3.56 2.619 4.865.714 1.424.12 3.323-1.31 4.035-2.261 1.068-5.357 2.018-9.642 2.018-3.572 0-5.596-.356-7.857-1.187-2.262-.83-4.167-2.255-5.715-4.035-1.31-1.661-2.024-3.798-2.38-6.171-.477-2.374-.596-5.34-.596-8.426V39.117H3.572A3.037 3.037 0 0 1 .477 36.15Zm245.595 45.57h7.381c1.547 0 2.857-1.306 2.857-2.848v-47.47c0-1.543-1.31-2.848-2.857-2.848h-7.381c-1.548 0-2.857 1.305-2.857 2.848v47.47c0 1.542 1.309 2.848 2.857 2.848Z" fill="#ADBDCE"/></g><defs><clipPath id="svg1931174823_5748_a"><path fill="#fff" transform="translate(0 .191)" d="M0 0h350v84.259H0z"/></clipPath></defs></svg>