<svg width="350" height="106" fill="none" xmlns="http://www.w3.org/2000/svg" id="svg-2143453188_4259"><g clip-path="url(#svg-2143453188_4259_a)"><path fill-rule="evenodd" clip-rule="evenodd" d="M344.261 51.515a5.685 5.685 0 0 1-5.702-5.669v-.04c0-3.132 2.527-5.742 5.739-5.742a5.685 5.685 0 0 1 5.702 5.67v.04a5.739 5.739 0 0 1-5.739 5.741Zm.037-10.882a5.102 5.102 0 0 0-5.141 5.06v.113c0 2.844 2.199 5.133 5.108 5.133a5.107 5.107 0 0 0 5.141-5.075v-.094a5.063 5.063 0 0 0-4.984-5.141c-.044.004-.084.004-.124.004Zm1.258 5.727 1.618 2.264h-1.359l-1.451-2.074h-1.255v2.074h-1.137V42.63h2.676c1.389 0 2.304.715 2.304 1.914-.004.978-.572 1.583-1.396 1.816Zm-.959-2.705h-1.488v1.896h1.488c.74 0 1.181-.361 1.181-.948 0-.613-.445-.948-1.181-.948Zm-71.389-19.626a5.817 5.817 0 0 0-5.819 5.812c0 3.212 2.6 5.815 5.812 5.819a5.818 5.818 0 0 0 5.818-5.82 5.816 5.816 0 0 0-5.818-5.818m4.017 16.115h-8.108a.597.597 0 0 0-.591.598v35.382a.59.59 0 0 0 .591.598h8.112a.598.598 0 0 0 .598-.598V40.735a.598.598 0 0 0-.598-.598m18.025.032v-1.115c0-3.3 1.265-4.773 4.105-4.773 1.688 0 3.044.336 4.572.846a.592.592 0 0 0 .784-.568v-6.83a.595.595 0 0 0-.423-.568 22.256 22.256 0 0 0-6.745-.97c-7.488 0-11.448 4.222-11.448 12.2v1.717h-3.897a.597.597 0 0 0-.598.59v7.008c0 .328.266.597.598.597h3.897v27.822c0 .324.263.59.591.59h8.112a.596.596 0 0 0 .59-.598v-27.82h7.573l11.601 27.82c-1.316 2.917-2.611 3.5-4.379 3.5-1.433 0-2.938-.43-4.477-1.272a.596.596 0 0 0-.467-.044.594.594 0 0 0-.35.325l-2.749 6.026a.594.594 0 0 0 .252.77c2.873 1.556 5.465 2.22 8.666 2.22 5.987 0 9.301-2.79 12.217-10.3l14.073-36.363a.588.588 0 0 0-.55-.813h-8.44a.601.601 0 0 0-.558.4l-8.652 24.705-9.479-24.722a.599.599 0 0 0-.55-.387h-13.869m-31.095-.025h-8.922V31.01a.59.59 0 0 0-.59-.59h-8.12a.597.597 0 0 0-.59.59v9.126h-3.905a.59.59 0 0 0-.591.59v6.978c0 .329.267.598.591.598h3.905v18.033c0 7.291 3.624 10.985 10.784 10.985 2.909 0 5.319-.598 7.594-1.885a.596.596 0 0 0 .303-.518v-6.635a.588.588 0 0 0-.86-.533c-1.561.788-3.074 1.149-4.762 1.149-2.603 0-3.762-1.178-3.762-3.825V48.307h8.921a.592.592 0 0 0 .598-.587v-6.982a.592.592 0 0 0-.587-.598c-.004-.003-.004-.003-.007-.003Zm-42.77-.74c-10.926 0-19.498 8.418-19.498 19.162 0 10.631 8.51 18.958 19.363 18.958 10.967 0 19.56-8.385 19.56-19.09 0-10.674-8.531-19.03-19.425-19.03Zm0 29.895c-5.815 0-10.204-4.674-10.204-10.871 0-6.217 4.236-10.727 10.069-10.727 5.856 0 10.26 4.674 10.26 10.872 0 6.217-4.251 10.726-10.125 10.726Zm-39.105-29.895c-4.572 0-8.32 1.8-11.408 5.487v-4.15a.596.596 0 0 0-.59-.597h-8.112a.597.597 0 0 0-.591.598v46.109c0 .324.266.59.591.59h8.112a.597.597 0 0 0 .59-.59V72.293c3.096 3.463 6.84 5.159 11.408 5.159 8.488 0 17.077-6.534 17.077-19.024 0-12.49-8.586-19.031-17.077-19.031Zm7.649 19.027c0 6.355-3.919 10.8-9.53 10.8-5.549 0-9.731-4.646-9.731-10.8 0-6.154 4.182-10.799 9.731-10.799 5.52 0 9.534 4.54 9.534 10.8m-47.039-10.092c-9.056-2.162-10.668-3.68-10.668-6.866 0-3.011 2.833-5.035 7.048-5.035 4.08 0 8.134 1.535 12.377 4.7a.598.598 0 0 0 .835-.124s0-.004.004-.004l4.426-6.238a.592.592 0 0 0-.113-.802c-5.053-4.057-10.744-6.026-17.394-6.026-9.786 0-16.614 5.866-16.614 14.266 0 9.005 5.891 12.195 16.078 14.652 8.666 1.995 10.132 3.668 10.132 6.665 0 3.31-2.957 5.37-7.722 5.37-5.287 0-9.596-1.782-14.423-5.953a.628.628 0 0 0-.434-.146.578.578 0 0 0-.408.211l-4.962 5.9a.583.583 0 0 0 .062.823 29.558 29.558 0 0 0 19.964 7.656c10.537 0 17.351-5.76 17.351-14.67 0-7.533-4.499-11.696-15.539-14.387M52.467.215C23.49.215 0 23.705 0 52.682s23.49 52.467 52.467 52.467 52.467-23.49 52.467-52.467S81.441.215 52.467.215ZM76.53 75.888a3.267 3.267 0 0 1-4.488 1.093c-.004-.003-.008-.003-.011-.007-12.323-7.528-27.822-9.227-46.087-5.057a3.272 3.272 0 0 1-3.916-2.457c-.4-1.76.7-3.51 2.457-3.915 19.983-4.572 37.13-2.604 50.955 5.847a3.276 3.276 0 0 1 1.09 4.496Zm6.413-14.285a4.094 4.094 0 0 1-5.622 1.35c-14.102-8.67-35.602-11.179-52.281-6.118a4.097 4.097 0 0 1-2.374-7.828c19.057-5.782 42.744-2.979 58.935 6.97a4.093 4.093 0 0 1 1.353 5.63s0 .004-.004.004m.554-14.883C66.588 36.688 38.69 35.762 22.546 40.67a4.906 4.906 0 0 1-2.982-9.348 1.1 1.1 0 0 1 .134-.04c18.529-5.633 49.34-4.54 68.805 7.015a4.908 4.908 0 0 1 1.717 6.723 4.908 4.908 0 0 1-6.723 1.717" fill="#ADBDCE"/></g><defs><clipPath id="svg-2143453188_4259_a"><path fill="#fff" d="M0 0h350v105.365H0z"/></clipPath></defs></svg>