<svg width="350" height="86" fill="none" xmlns="http://www.w3.org/2000/svg" id="svg-1422926009_3286"><g clip-path="url(#svg-1422926009_3286_a)"><path d="M249.432 33.472c-5.08 0-8.706 1.735-10.485 5.021l-.956 1.78v-5.944h-8.266v36.13h8.694V48.964c0-5.136 2.791-8.082 7.653-8.082 4.637 0 7.295 2.869 7.295 7.868v21.71h8.698V47.2c0-8.603-4.721-13.728-12.633-13.728Zm-42.165 0c-10.26 0-16.613 6.402-16.613 16.707v5.072c0 9.91 6.427 16.065 16.776 16.065 6.922 0 11.773-2.537 14.826-7.754l-5.39-3.101c-2.256 3.009-5.859 4.874-9.433 4.874-5.239 0-8.366-3.235-8.366-8.655v-1.436h24.267v-5.992c0-9.6-6.302-15.78-16.06-15.78h-.007Zm8.155 15.931h-16.384v-.867c0-5.948 2.92-9.23 8.222-9.23 5.106 0 8.155 3.234 8.155 8.654l.007 1.443Zm132.989-21.022v-6.912h-30.074v6.912h10.544v35.152h-10.544v6.911h30.074v-6.911h-10.548V28.38h10.548Zm-228.032-7.909c-13.431 0-21.782 8.37-21.782 21.85v7.288c0 13.476 8.347 21.85 21.782 21.85s21.782-8.374 21.782-21.85v-7.288c-.004-13.494-8.362-21.85-21.782-21.85Zm12.796 29.636c0 8.95-4.663 14.082-12.796 14.082s-12.792-5.132-12.792-14.081v-8.29c0-8.949 4.666-14.08 12.796-14.08 8.129 0 12.796 5.131 12.796 14.08l-.004 8.29Zm36.295-16.636c-4.563 0-8.514 1.89-10.574 5.055l-.934 1.44v-5.638h-8.27V82.89h8.698V65.301l.931 1.381c1.956 2.902 5.778 4.634 10.223 4.634 7.498 0 15.062-4.9 15.062-15.85v-6.144c0-7.89-4.662-15.85-15.136-15.85Zm6.438 21.57c0 5.821-3.396 9.44-8.86 9.44-5.095 0-8.65-3.825-8.65-9.297V49.75c0-5.538 3.585-9.437 8.724-9.437 5.423 0 8.794 3.615 8.794 9.437l-.008 5.291ZM286.1 21.472l-17.548 48.986h8.835l3.359-10.5h20.173l.033.103 3.323 10.397h8.831l-17.577-48.99-9.429.004Zm-3.198 31.578 7.916-24.766 7.834 24.766h-15.75ZM81.592 35.148a21.145 21.145 0 0 0-1.816-17.37 21.413 21.413 0 0 0-23.038-10.26A21.15 21.15 0 0 0 40.786.397a21.39 21.39 0 0 0-20.405 14.82 21.157 21.157 0 0 0-14.136 10.26 21.415 21.415 0 0 0 2.632 25.085 21.16 21.16 0 0 0 1.816 17.352A21.413 21.413 0 0 0 33.75 78.198a21.157 21.157 0 0 0 15.934 7.118 21.39 21.39 0 0 0 20.405-14.82 21.154 21.154 0 0 0 14.133-10.26 21.385 21.385 0 0 0-2.629-25.088Zm-31.909 44.63a15.849 15.849 0 0 1-10.182-3.692c.126-.07.37-.192.51-.284l16.908-9.762a2.744 2.744 0 0 0 1.389-2.404V39.793l7.143 4.124a.246.246 0 0 1 .14.2V63.85a15.928 15.928 0 0 1-15.908 15.928ZM15.5 65.179a15.877 15.877 0 0 1-1.9-10.662c.125.077.347.21.502.299l16.913 9.765a2.747 2.747 0 0 0 2.776 0L54.424 52.65v8.248a.247.247 0 0 1-.1.221L37.23 70.983a15.926 15.926 0 0 1-21.73-5.822v.018Zm-4.43-36.92a15.846 15.846 0 0 1 8.28-6.978v20.1a2.75 2.75 0 0 0 1.389 2.403l20.638 11.918-7.17 4.139a.25.25 0 0 1-.24.022l-17.09-9.869a15.924 15.924 0 0 1-5.822-21.735h.015Zm58.7 13.66L49.134 30.003l7.137-4.128a.254.254 0 0 1 .24-.022L73.6 35.72a15.913 15.913 0 0 1-2.46 28.709V44.334a2.746 2.746 0 0 0-1.38-2.414h.01Zm7.115-10.706c-.126-.078-.347-.21-.502-.3L59.47 21.149a2.747 2.747 0 0 0-2.776 0L36.057 33.062v-8.244a.268.268 0 0 1 .103-.222l17.09-9.865a15.912 15.912 0 0 1 23.628 16.485l.007-.003ZM32.162 45.922l-7.148-4.124a.27.27 0 0 1-.136-.2V21.864A15.91 15.91 0 0 1 50.968 9.63c-.126.07-.35.192-.51.284L33.55 19.675a2.752 2.752 0 0 0-1.388 2.403v23.844Zm3.88-8.37 9.193-5.31 9.189 5.31v10.61l-9.193 5.31-9.193-5.31.004-10.61Z" fill="#ADBDCE"/></g><defs><clipPath id="svg-1422926009_3286_a"><path fill="#fff" transform="translate(0 .363)" d="M0 0h350v84.984H0z"/></clipPath></defs></svg>